# xmcd
#
# Track frame offsets: 
#        150
#        21009
#        34560
#        51755
#        69557
#        90379
#        102362
#        121549
#        137366
#        151079
#
# Disc length: 2318 seconds
#
# Revision: 0
# Processed by: cddbd v1.5.2PL0 Copyright (c) Steve Scherf et al.
# Submitted via: ExactAudioCopy v1.3
#
DISCID=6a090c0a
DTITLE=Hold Your Horses - Broken Bones And Shattered Dreams
DYEAR=2018
DGENRE=Country
TTITLE0=Mandy
TTITLE1=Five Bottles Of Bourbon
TTITLE2=Unite
TTITLE3=Cactus Rose
TTITLE4=Death Row Ride
TTITLE5=Change Of Heart
TTITLE6=Lost At Sea
TTITLE7=This Old House
TTITLE8=Willie On The Jukebox
TTITLE9=Mika
EXTD=
EXTT0=
EXTT1=
EXTT2=
EXTT3=
EXTT4=
EXTT5=
EXTT6=
EXTT7=
EXTT8=
EXTT9=
PLAYORDER=
